<?xml version="1.0" encoding="utf-8"?>
<!-- Generator: Adobe Illustrator 16.0.0, SVG Export Plug-In . SVG Version: 6.00 Build 0)  -->
<!DOCTYPE svg PUBLIC "-//W3C//DTD SVG 1.1//EN" "http://www.w3.org/Graphics/SVG/1.1/DTD/svg11.dtd">
<svg version="1.1" id="Calque_1" xmlns="http://www.w3.org/2000/svg" xmlns:xlink="http://www.w3.org/1999/xlink" x="0px" y="0px"
	 width="320px" height="568px" viewBox="0 0 320 568" enable-background="new 0 0 320 568" xml:space="preserve">
<g>
	<defs>
		<rect id="SVGID_1_" x="0.104" y="-0.199" width="319.896" height="567.199"/>
	</defs>
	<clipPath id="SVGID_2_">
		<use xlink:href="#SVGID_1_"  overflow="visible"/>
	</clipPath>
	<g transform="matrix(1 0 0 1 0 0)" clip-path="url(#SVGID_2_)">
		
			<image overflow="visible" width="2000" height="1300" xlink:href="../../test/img/background_emmet.jpg"  transform="matrix(0.3241 0 0 0.3231 -297.2559 148.082)">
		</image>
	</g>
	<g transform="matrix(1 0 0 1 0 1.525879e-05)" clip-path="url(#SVGID_2_)">
		
			<image overflow="visible" width="2000" height="1300" xlink:href="../../test/img/background_emmet.jpg"  transform="matrix(-0.3241 0 0 -0.3231 351.4443 148.6191)">
		</image>
	</g>
	<g clip-path="url(#SVGID_2_)">
		<g>
			<g>
				<path fill="#FAC5A1" d="M265.514,232.912c0.019,0.24-0.81,1.236-1.734,2.27c-0.892,0.504-1.679,1.016-1.679,1.016
					c-1.257-0.42-3.831,0.348-3.831,0.348c-0.115-0.248-0.497-0.475-0.916-0.688c0.693-0.918,1.854-2.486,2.43-3.363
					c0.848-1.295,1.875-1.326,1.979-0.852c0.068,0.305-1.236,2.232-2.187,3.586c0.828-0.846,1.806-1.857,2.37-2.502
					c1.124-1.279,2.245-1.152,2.288-0.617c0.013,0.156-0.346,0.645-0.853,1.252C264.449,232.263,265.473,232.4,265.514,232.912z"/>
				<path fill="#195567" d="M236.92,282.744c0.312,6.831-21.354,13.317-21.354,13.317s-8.543,1.74-11.969-11.764
					c-3.426-13.504,7.658-32.831,7.658-32.831c7.786,13.621,24.499,6.92,24.499,6.92s0.021,0.473,0.062,1.293
					c0.106,2.15,0.328,6.701,0.551,11.387C236.58,275.46,236.795,279.982,236.92,282.744z"/>
				<path fill="#FBCBA5" d="M266.152,235.164c-1.233,0.934-4.698,3.553-5.161,4.547s-1.678,5.014-1.678,5.014l-4.079-1.406
					c0,0,0.729-3.607,0.313-4.088c-0.414-0.482-1.584-2.887-1.291-3.312c0.289-0.43,0.565-4.844,1.516-4.641
					c0.952,0.201,0.212,3.293,0.299,3.75c0.05,0.266,0.698,0.533,1.282,0.83c0.419,0.213,0.801,0.439,0.916,0.688
					c0,0,2.574-0.768,3.831-0.348c0,0,0.787-0.512,1.679-1.016c0.7-0.396,1.467-0.785,1.959-0.918
					C265.738,234.263,267.386,234.232,266.152,235.164z"/>
				<path fill="#195567" d="M259.986,243.972c0,0-8.221,23.023-23.618,27.094c-0.223-4.686-0.444-9.236-0.551-11.387
					c1.385,0.639,4.985,1.67,9.062-2.18c5.225-4.938,10.121-15.207,10.121-15.207S257.853,243.591,259.986,243.972z"/>
				<polygon fill="#FAFDFE" points="235.158,261.955 232.324,272.525 231.263,276.496 228.833,272.662 222.643,262.898 				"/>
				<path fill="#E94A53" d="M230.784,265.994l1.539,6.531l-1.062,3.971l-2.43-3.834l0.935-6.631
					c-0.785-0.605-1.98-2.041-2.514-2.699c0.293-0.301,0.623-0.639,0.955-0.98c0.969-0.98,1.963-1.971,2.134-2.049
					c0.623,0.721,1.676,2.039,2.367,2.918C232.183,264.173,231.352,265.417,230.784,265.994z"/>
				<path fill="#DDF0F5" d="M230.342,260.302c-0.171,0.078-1.165,1.068-2.134,2.049c-0.332,0.342-0.662,0.68-0.955,0.98
					c-0.588,0.604-1.021,1.057-1.021,1.057c-3.397-0.311-16.127-9.932-16.127-10.758c0-0.828,1.48-3.342,1.48-3.342l0.003,0.002
					c0.111,0.295,0.256,0.516,0.436,0.648c2.647,1.982,10.72,9.457,18.225,9.277c0.013,0.006,0.025,0.016,0.038,0.02
					c0.002,0.008,0.009,0.01,0.012,0.018C230.314,260.269,230.327,260.287,230.342,260.302z"/>
				<path fill="#DDF0F5" d="M230.358,260.292c-0.004,0-0.01,0.004-0.017,0.01c-0.018-0.021-0.037-0.043-0.055-0.066
					C230.342,260.271,230.367,260.292,230.358,260.292z"/>
				<path fill="#DDF0F5" d="M235.789,258.363v0.738c0,0.828-0.544,4.207-2.389,4.994c0,0-0.283-0.359-0.691-0.875
					c-0.691-0.879-1.744-2.197-2.367-2.918c0.007-0.006,0.013-0.01,0.017-0.01c0.006,0-0.007-0.012-0.034-0.037
					c-0.007,0-0.013-0.002-0.02-0.006c-0.006-0.006-0.012-0.01-0.018-0.014c-0.01-0.008-0.016-0.018-0.022-0.023
					c1.899-0.043,3.762-0.584,5.49-1.826C235.767,258.378,235.776,258.371,235.789,258.363z"/>
				<path fill="#DDF0F5" d="M230.358,260.292c-0.004,0-0.01,0.004-0.017,0.01c-0.018-0.021-0.037-0.043-0.055-0.066
					C230.342,260.271,230.367,260.292,230.358,260.292z"/>
				<path fill="#FBCBA5" d="M235.755,247.935c2.774,7.686,1.217,9.561,0.034,10.428c-0.013,0.008-0.022,0.016-0.034,0.023
					c-1.729,1.242-3.591,1.783-5.49,1.826c-0.006,0.004-0.01,0.004-0.016,0.004c-7.505,0.18-15.577-7.295-18.225-9.277
					c-0.18-0.133-0.324-0.354-0.436-0.648l-0.003-0.002c-1.984-5.18,5.641-33.554,5.641-33.554
					c1.245-3.026,15.959,1.63,17.984,2.948c2.023,1.32,0.311,8.926,1.166,12.264c0.857,3.336,4.438,7.141,4.438,10.943
					S235.755,247.935,235.755,247.935z"/>
				<path fill="#6A3018" d="M219.379,234.017h-1.713c0,0-0.571-2.277-1.973-2.174c-1.4,0.104-3.011,3.053-0.935,7.09
					c2.077,4.035-2.839,1.879-2.839,1.879s-4.479-23.3,2.996-26.922c7.475-3.621,29.168-1.656,26.365,5.588
					c-2.802,7.244-9.082,3.932-13.13,0.879c-4.05-3.053-5.296-4.553-7.112-4.139C221.039,216.218,215.591,219.738,219.379,234.017z"
					/>
				<path fill="#FFFFFF" d="M221.859,240.367c0,0-1.334,11.424,4.619,11.848c3.632,0.26,4.255-2.947,4.255-2.947
					S223.416,252.164,221.859,240.367z"/>
				<ellipse fill="#6A3018" cx="226.233" cy="232.724" rx="0.986" ry="1.551"/>
				<path fill="#6A3018" d="M222.779,231.171c0,0-0.021-0.125-0.012-0.344c0.002-0.111,0.016-0.242,0.036-0.396
					c0.031-0.146,0.052-0.324,0.115-0.504c0.027-0.09,0.059-0.186,0.094-0.283c0.042-0.096,0.084-0.193,0.129-0.295
					c0.092-0.201,0.219-0.4,0.356-0.604c0.152-0.191,0.306-0.398,0.507-0.566c0.099-0.086,0.186-0.188,0.299-0.258l0.332-0.223
					c0.222-0.146,0.478-0.234,0.715-0.342c0.249-0.078,0.499-0.133,0.736-0.186c0.244-0.021,0.479-0.035,0.699-0.043
					c0.22,0.002,0.425,0.039,0.612,0.061c0.094,0.014,0.183,0.027,0.267,0.041c0.086,0.018,0.163,0.047,0.236,0.066
					c0.147,0.043,0.271,0.09,0.375,0.127c0.204,0.074,0.315,0.127,0.315,0.127s-0.125,0.027-0.339,0.057
					c-0.105,0.014-0.233,0.033-0.377,0.045c-0.145,0.008-0.305,0.041-0.477,0.076s-0.357,0.055-0.547,0.098
					c-0.188,0.055-0.382,0.105-0.583,0.152c-0.191,0.07-0.388,0.145-0.589,0.219c-0.093,0.049-0.187,0.1-0.283,0.145
					c-0.096,0.047-0.193,0.088-0.278,0.154c-0.179,0.111-0.361,0.223-0.52,0.363c-0.173,0.121-0.313,0.275-0.466,0.412
					c-0.137,0.15-0.279,0.295-0.396,0.447c-0.122,0.148-0.235,0.295-0.331,0.439c-0.105,0.139-0.184,0.275-0.268,0.396
					c-0.068,0.123-0.146,0.23-0.193,0.322C222.838,231.06,222.779,231.171,222.779,231.171z"/>
			</g>
			<path opacity="0.6" fill="#FFFFFF" d="M201.688,350.883l-3.659-4.824l-2.617-3.449l-1.044-1.379c0,0-30.964-9.529-42.805,20.465
				c0,0,2.639-1.568,7.028-1.084c0,0-8.937,10.107-7.902,21.123c10.352,4,22.542-1.816,22.542-1.816
				c-0.726,4.338-2.959,6.445-2.959,6.445C202.446,383.184,201.688,350.883,201.688,350.883z"/>
			<g>
				<path fill="#E94A53" d="M275.672,282.535c0,0,15.763-9.846,15.91-8.994c0.148,0.854-12.802,13.059-12.802,13.059
					L275.672,282.535z"/>
				<polygon fill="#E94A53" points="211.792,358.152 189.457,329.523 192.201,327.396 214.536,356.021 				"/>
				<polygon fill="#E94A53" points="204.734,354.754 190.933,337.064 193.678,334.936 207.48,352.625 				"/>
				<path fill="#E94A53" d="M206.763,302.039c-8.232,6.816-14.905,14.336-19.657,21.752l-18.909,8.826l18.064-28.371
					c0.888-1.395,2.95-2.5,4.604-2.471L206.763,302.039z"/>
				<path fill="#E94A53" d="M243.062,348.705l-3.654,15.418c-0.38,1.609-1.961,3.326-3.533,3.842l-32.03,10.471l13.242-16.105
					l0.071-0.041h0.003C225.513,359.529,234.435,354.951,243.062,348.705z"/>
				<path fill="#EADEDA" d="M280.898,296.367c-2.112,14.746-16.201,35.645-34.849,50.1c-0.99,0.77-1.989,1.514-2.988,2.238
					c-8.627,6.246-17.549,10.824-25.901,13.584h-0.003c-0.028,0.01-0.053,0.02-0.081,0.027l-15.15-19.41l-14.861-19.053
					c0.013-0.021,0.029-0.039,0.041-0.062c4.752-7.416,11.425-14.936,19.657-21.752c0.927-0.77,1.877-1.531,2.846-2.281
					c18.645-14.457,42.643-22.655,57.45-21.127c5.021,0.516,8.986,2.154,11.326,5.039c0.043,0.049,0.081,0.1,0.121,0.148
					C280.933,286.926,281.627,291.281,280.898,296.367z"/>
				<path fill="#E83D4B" d="M258.233,318.645c-6.686,5.184-16.321,3.984-21.523-2.682c-5.198-6.664-3.994-16.27,2.691-21.455
					c6.686-5.182,16.321-3.982,21.522,2.682C266.124,303.855,264.92,313.461,258.233,318.645z"/>
				<path fill="#DBF0FC" d="M256.727,316.715c-5.616,4.355-13.71,3.346-18.079-2.252c-4.368-5.6-3.357-13.668,2.261-18.025
					c5.616-4.354,13.711-3.346,18.08,2.254C263.357,304.289,262.345,312.359,256.727,316.715z"/>
				<path fill="#E94A53" d="M280.898,296.367l-13.84-17.739c5.107,0.527,9.123,2.211,11.448,5.191
					C280.931,286.928,281.626,291.279,280.898,296.367z"/>
				<g>
					<path fill="#FED16B" d="M199.12,347.73l-1.27-1.674l-0.906-1.195l-0.362-0.477c0,0-10.732-3.305-14.839,7.094
						c0,0,0.915-0.545,2.437-0.377c0,0-3.098,3.504-2.739,7.324c3.59,1.385,7.814-0.631,7.814-0.631
						c-0.252,1.504-1.025,2.234-1.025,2.234C199.384,358.928,199.12,347.73,199.12,347.73z"/>
					<path fill="#FFE8BB" d="M198.714,347.193l-0.853-1.127l-0.854-1.129c-6.535,0.666-10.48,9.648-10.48,9.648
						S196.275,353.273,198.714,347.193z"/>
				</g>
				<path fill="#FFFFFF" stroke="#FED16B" stroke-miterlimit="10" d="M278.386,283.669l-76.459,59.235l-14.862-19.051
					c5.291-8.273,12.978-16.68,22.543-24.098c18.644-14.455,42.644-22.653,57.452-21.125
					C272.08,279.146,276.046,280.785,278.386,283.669z"/>
			</g>
			<g>
				<path fill="#195567" d="M214.216,296.133c0,0,12.771,0.387,13.003,1.939s-4.503,12.891-4.503,12.891l2.45,0.924
					c0,0,8.229-12.262,5.567-15.754c-2.66-3.492-12.438-5.945-13.092-5.746C216.044,290.867,214.216,296.133,214.216,296.133z"/>
				<path fill="#0C0D0D" d="M227.166,312.27c1.915,1.451,2.962,3.291,2.337,4.111c-0.623,0.818-2.683,0.307-4.598-1.145
					c-1.917-1.453-2.963-3.293-2.339-4.111S225.25,310.818,227.166,312.27z"/>
			</g>
			<g>
				<path fill="#FBCBA5" d="M200.513,306.123c-0.655,0.049-0.41-3.062-1.095-3.463c-0.688-0.4-0.569,5.174-0.569,5.174
					s-0.815,0.436-2.905-1.197c-1.516-1.18-0.196-5.486,0.648-7.773l4.294,0.389C201.169,301.822,201.025,306.088,200.513,306.123z"
					/>
				<path fill="#195567" d="M211.256,269.306c-6.957,10.967-10.224,29.958-10.224,29.958l-0.146-0.012l-4.294-0.389l-0.183-0.016
					c-0.709-21.961,12.919-43.561,12.919-43.561L211.256,269.306z"/>
				<path fill="#0C424F" d="M204.183,286.127l5.521-14.135c0,0-5.684,16.389-3.26,19.165
					C206.443,291.156,205.052,288.85,204.183,286.127z"/>
			</g>
			<g>
				<path fill="#FED16B" d="M264.47,227.312c0.983-1.076,1.588-2.5,1.588-4.07c0-3.344-2.718-6.054-6.071-6.054
					s-6.073,2.71-6.073,6.054c0,1.57,0.604,2.994,1.59,4.07h-0.01c0,0,2.193,2.268,2.202,4.982c0,0,4.387,1.119,4.522,0
					c0.424-3.471,2.282-4.932,2.262-4.982C264.479,227.31,264.47,227.312,264.47,227.312z"/>
				<path fill="#EADEDA" d="M262.625,232.773h-5.473c0-0.264,0.195-0.479,0.438-0.479h4.596
					C262.43,232.294,262.625,232.509,262.625,232.773z"/>
				<path fill="#EADEDA" d="M262.626,233.732c0,0.264-0.196,0.477-0.44,0.477h-4.594c-0.243,0-0.439-0.213-0.439-0.477l0,0
					c0-0.266,0.196-0.48,0.439-0.48h4.594C262.43,233.251,262.626,233.466,262.626,233.732L262.626,233.732z"/>
				<path fill="#EADEDA" d="M262.626,234.689c0,0.264-0.196,0.479-0.44,0.479h-4.594c-0.243,0-0.439-0.215-0.439-0.479l0,0
					c0-0.266,0.196-0.48,0.439-0.48h4.594C262.43,234.208,262.626,234.423,262.626,234.689L262.626,234.689z"/>
				<path fill="#EADEDA" d="M262.626,235.646c0,0.264-0.196,0.479-0.44,0.479h-4.594c-0.243,0-0.439-0.215-0.439-0.479l0,0
					c0-0.266,0.196-0.479,0.439-0.479h4.594C262.43,235.167,262.626,235.38,262.626,235.646L262.626,235.646z"/>
				<path fill="#5A5650" d="M262.625,232.773c0,0.264-0.195,0.479-0.438,0.479h-4.596c-0.243,0-0.438-0.215-0.438-0.479H262.625z"/>
				<path fill="#5A5650" d="M262.625,233.732c0,0.264-0.195,0.477-0.438,0.477h-4.596c-0.243,0-0.438-0.213-0.438-0.477H262.625z"/>
				<path fill="#5A5650" d="M262.625,234.689c0,0.264-0.195,0.479-0.438,0.479h-4.596c-0.243,0-0.438-0.215-0.438-0.479H262.625z"/>
				<path fill="#5A5650" d="M262.625,235.646c0,0.264-0.195,0.479-0.438,0.479h-4.596c-0.243,0-0.438-0.215-0.438-0.479H262.625z"/>
				<path fill="#FFFFFF" d="M260.449,215.201c0,0.309-0.25,0.559-0.561,0.559l0,0c-0.31,0-0.561-0.25-0.561-0.559v-3.176
					c0-0.31,0.251-0.56,0.561-0.56l0,0c0.311,0,0.561,0.25,0.561,0.56V215.201z"/>
				<path fill="#FFFFFF" d="M263.539,216.065c-0.123,0.284-0.452,0.415-0.737,0.293l0,0c-0.284-0.122-0.415-0.452-0.293-0.735
					l1.259-2.917c0.122-0.283,0.452-0.415,0.736-0.292l0,0c0.285,0.121,0.417,0.451,0.293,0.734L263.539,216.065z"/>
				<path fill="#FFFFFF" d="M266.033,218.078c-0.225,0.211-0.581,0.201-0.792-0.021l0,0c-0.214-0.226-0.205-0.579,0.021-0.791
					l2.314-2.184c0.225-0.213,0.58-0.203,0.793,0.021l0,0c0.212,0.225,0.202,0.578-0.021,0.791L266.033,218.078z"/>
				<path fill="#FFFFFF" d="M267.526,220.908c-0.291,0.107-0.613-0.043-0.719-0.332l0,0c-0.108-0.289,0.043-0.611,0.333-0.719
					l2.991-1.092c0.29-0.107,0.611,0.043,0.719,0.332l0,0c0.107,0.289-0.042,0.611-0.333,0.719L267.526,220.908z"/>
				<path fill="#FFFFFF" d="M256.508,215.99c0.121,0.283,0.451,0.414,0.737,0.292l0,0c0.284-0.122,0.415-0.451,0.293-0.735
					l-1.259-2.916c-0.122-0.283-0.452-0.414-0.737-0.293l0,0c-0.285,0.123-0.416,0.451-0.294,0.734L256.508,215.99z"/>
				<path fill="#FFFFFF" d="M254.014,218.001c0.225,0.211,0.58,0.203,0.793-0.021l0,0c0.213-0.225,0.202-0.578-0.023-0.791
					l-2.312-2.184c-0.226-0.212-0.581-0.202-0.794,0.022l0,0c-0.213,0.224-0.203,0.578,0.021,0.79L254.014,218.001z"/>
				<path fill="#FFFFFF" d="M252.521,220.832c0.291,0.107,0.612-0.041,0.72-0.332l0,0c0.106-0.289-0.043-0.611-0.334-0.717
					l-2.99-1.094c-0.291-0.105-0.614,0.043-0.721,0.332l0,0c-0.106,0.291,0.043,0.611,0.333,0.719L252.521,220.832z"/>
				<path fill="#FFDC96" d="M261.661,218.73c-1.198,0-2.247,0.66-2.842,1.65c0.519-0.342,1.13-0.543,1.787-0.543
					c1.855,0,3.36,1.576,3.36,3.523c0,0.688-0.191,1.33-0.518,1.873c0.944-0.625,1.573-1.725,1.573-2.98
					C265.022,220.308,263.519,218.73,261.661,218.73z"/>
				<g>
					<path fill="#FFEDCB" d="M263.382,217.188c0,0-0.308,2.017-1.69,2.29c0,0,1.574,0.867,1.684,2.289
						c0.005,0.051,0.007,0.104,0.007,0.154c0,0,0.159-1.9,1.561-2.365C264.942,219.556,263.482,218.818,263.382,217.188z"/>
					<path fill="#FFFFFF" d="M263.274,220.357c0,0,0.142-0.836,0.717-0.939c0,0-0.647-0.371-0.685-0.963
						c0-0.021-0.002-0.043,0-0.064c0,0-0.08,0.789-0.665,0.973C262.642,219.363,263.243,219.679,263.274,220.357z"/>
				</g>
			</g>
		</g>
		
			<image overflow="visible" width="200" height="200" xlink:href="../../test/img/icon2.png"  transform="matrix(0.228 0 0 0.2273 226.4688 284.7559)">
		</image>
		
			<image overflow="visible" width="200" height="200" xlink:href="../../test/img/icon1.png"  transform="matrix(0.228 0 0 0.2273 239.5771 196.6514)">
		</image>
	</g>
	<g clip-path="url(#SVGID_2_)">
		<path fill="#FFFFFF" stroke="#FFFFFF" stroke-width="2" stroke-miterlimit="10" d="M38.001,153.298l-2.739,8.269h-3.521
			l8.959-26.287h4.108l8.999,26.287h-3.638l-2.817-8.269H38.001z M46.647,150.646l-2.582-7.566
			c-0.587-1.716-0.978-3.276-1.369-4.797h-0.079c-0.391,1.56-0.821,3.159-1.33,4.758l-2.582,7.605H46.647z"/>
		<path fill="#FFFFFF" stroke="#FFFFFF" stroke-width="2" stroke-miterlimit="10" d="M85.965,160.396
			c-1.526,0.546-4.538,1.443-8.099,1.443c-3.991,0-7.277-1.014-9.859-3.471c-2.27-2.184-3.678-5.694-3.678-9.789
			c0.039-7.839,5.438-13.573,14.28-13.573c3.051,0,5.438,0.663,6.573,1.209l-0.822,2.769c-1.409-0.624-3.169-1.131-5.83-1.131
			c-6.416,0-10.603,3.978-10.603,10.569c0,6.669,4.03,10.608,10.172,10.608c2.23,0,3.756-0.312,4.538-0.702v-7.839h-5.36v-2.73
			h8.686V160.396z"/>
		<path fill="#FFFFFF" stroke="#FFFFFF" stroke-width="2" stroke-miterlimit="10" d="M108.381,151.972
			c0,6.981-4.851,10.023-9.429,10.023c-5.125,0-9.077-3.744-9.077-9.711c0-6.318,4.147-10.023,9.39-10.023
			C104.704,142.261,108.381,146.2,108.381,151.972z M93.358,152.167c0,4.134,2.386,7.254,5.751,7.254
			c3.286,0,5.751-3.081,5.751-7.333c0-3.198-1.604-7.254-5.673-7.254C95.118,144.835,93.358,148.579,93.358,152.167z"/>
		<path fill="#FFFFFF" stroke="#FFFFFF" stroke-width="2" stroke-miterlimit="10" d="M129.859,151.972
			c0,6.981-4.851,10.023-9.429,10.023c-5.125,0-9.077-3.744-9.077-9.711c0-6.318,4.147-10.023,9.39-10.023
			C126.182,142.261,129.859,146.2,129.859,151.972z M114.836,152.167c0,4.134,2.387,7.254,5.751,7.254
			c3.286,0,5.751-3.081,5.751-7.333c0-3.198-1.604-7.254-5.673-7.254C116.597,144.835,114.836,148.579,114.836,152.167z"/>
		<path fill="#FFFFFF" stroke="#FFFFFF" stroke-width="2" stroke-miterlimit="10" d="M150.555,133.875v22.816
			c0,1.677,0.039,3.588,0.156,4.875h-3.091l-0.157-3.276h-0.078c-1.057,2.106-3.365,3.706-6.456,3.706
			c-4.578,0-8.099-3.861-8.099-9.595c-0.04-6.279,3.874-10.14,8.49-10.14c2.896,0,4.852,1.365,5.712,2.886h0.078v-11.271H150.555z
			 M147.112,150.373c0-0.429-0.039-1.014-0.157-1.443c-0.508-2.184-2.386-3.978-4.969-3.978c-3.56,0-5.673,3.12-5.673,7.293
			c0,3.822,1.878,6.981,5.595,6.981c2.309,0,4.421-1.521,5.047-4.095c0.118-0.468,0.157-0.936,0.157-1.482V150.373z"/>
		<path fill="#FFFFFF" stroke="#FFFFFF" stroke-width="2" stroke-miterlimit="10" d="M165.851,142.689l2.504,9.595
			c0.547,2.106,1.056,4.056,1.407,6.006h0.117c0.432-1.911,1.058-3.939,1.684-5.967l3.091-9.634h2.895l2.934,9.438
			c0.705,2.262,1.252,4.251,1.684,6.162h0.116c0.313-1.911,0.822-3.9,1.448-6.123l2.699-9.478h3.403l-6.103,18.877h-3.13
			l-2.895-9.009c-0.666-2.106-1.213-3.978-1.684-6.201h-0.077c-0.471,2.262-1.058,4.212-1.723,6.24l-3.051,8.97h-3.13l-5.712-18.877
			H165.851z"/>
		<path fill="#FFFFFF" stroke="#FFFFFF" stroke-width="2" stroke-miterlimit="10" d="M203.603,161.566l-0.273-2.379h-0.118
			c-1.056,1.482-3.091,2.808-5.789,2.808c-3.835,0-5.791-2.691-5.791-5.421c0-4.563,4.068-7.059,11.386-7.021v-0.39
			c0-1.56-0.432-4.368-4.305-4.368c-1.761,0-3.6,0.546-4.93,1.404L193,143.938c1.564-1.014,3.835-1.677,6.221-1.677
			c5.79,0,7.198,3.939,7.198,7.722v7.059c0,1.638,0.079,3.237,0.313,4.524H203.603z M203.095,151.933
			c-3.756-0.078-8.021,0.585-8.021,4.251c0,2.223,1.487,3.276,3.247,3.276c2.465,0,4.03-1.56,4.578-3.159
			c0.118-0.351,0.196-0.741,0.196-1.092V151.933z"/>
		<path fill="#FFFFFF" stroke="#FFFFFF" stroke-width="2" stroke-miterlimit="10" d="M212.913,142.689l4.147,11.155
			c0.431,1.248,0.899,2.73,1.213,3.861h0.079c0.352-1.131,0.743-2.574,1.212-3.939l3.757-11.077h3.638l-5.164,13.456
			c-2.465,6.475-4.147,9.79-6.494,11.818c-1.684,1.482-3.365,2.067-4.227,2.223l-0.859-2.886c0.859-0.273,1.995-0.819,3.012-1.677
			c0.938-0.741,2.113-2.067,2.895-3.822c0.157-0.351,0.274-0.624,0.274-0.819c0-0.195-0.078-0.468-0.234-0.897l-7.004-17.395
			H212.913z"/>
		<path fill="#FFFFFF" stroke="#FFFFFF" stroke-width="2" stroke-miterlimit="10" d="M37.766,176.269v5.421h4.93v2.613h-4.93v10.18
			c0,2.34,0.665,3.666,2.582,3.666c0.899,0,1.565-0.117,1.995-0.234l0.156,2.574c-0.665,0.273-1.721,0.468-3.051,0.468
			c-1.604,0-2.895-0.507-3.717-1.443c-0.978-1.014-1.33-2.691-1.33-4.914v-10.296h-2.934v-2.613h2.934v-4.524L37.766,176.269z"/>
		<path fill="#FFFFFF" stroke="#FFFFFF" stroke-width="2" stroke-miterlimit="10" d="M63.47,190.972
			c0,6.981-4.851,10.023-9.429,10.023c-5.125,0-9.077-3.744-9.077-9.711c0-6.318,4.147-10.023,9.39-10.023
			C59.792,181.261,63.47,185.2,63.47,190.972z M48.446,191.167c0,4.134,2.387,7.254,5.751,7.254c3.286,0,5.751-3.081,5.751-7.333
			c0-3.198-1.604-7.254-5.672-7.254C50.207,183.835,48.446,187.579,48.446,191.167z"/>
		<path fill="#FFFFFF" stroke="#FFFFFF" stroke-width="2" stroke-miterlimit="10" d="M77.396,181.689l2.504,9.595
			c0.547,2.106,1.056,4.056,1.408,6.006h0.118c0.43-1.911,1.056-3.939,1.682-5.967l3.091-9.634h2.896l2.935,9.438
			c0.704,2.262,1.252,4.251,1.682,6.162h0.118c0.313-1.911,0.821-3.9,1.447-6.123l2.7-9.478h3.403l-6.104,18.877h-3.13l-2.895-9.009
			c-0.666-2.106-1.213-3.978-1.683-6.201h-0.079c-0.469,2.262-1.056,4.212-1.721,6.24l-3.052,8.97h-3.13l-5.712-18.877H77.396z"/>
		<path fill="#FFFFFF" stroke="#FFFFFF" stroke-width="2" stroke-miterlimit="10" d="M121.565,190.972
			c0,6.981-4.851,10.023-9.429,10.023c-5.125,0-9.077-3.744-9.077-9.711c0-6.318,4.147-10.023,9.39-10.023
			C117.888,181.261,121.565,185.2,121.565,190.972z M106.542,191.167c0,4.134,2.387,7.254,5.751,7.254
			c3.286,0,5.751-3.081,5.751-7.333c0-3.198-1.604-7.254-5.672-7.254C108.302,183.835,106.542,187.579,106.542,191.167z"/>
		<path fill="#FFFFFF" stroke="#FFFFFF" stroke-width="2" stroke-miterlimit="10" d="M125.907,187.579
			c0-2.223-0.039-4.134-0.157-5.89h3.013l0.117,3.706h0.157c0.861-2.535,2.934-4.134,5.243-4.134c0.392,0,0.665,0.039,0.978,0.117
			v3.237c-0.352-0.078-0.704-0.117-1.173-0.117c-2.426,0-4.147,1.833-4.617,4.407c-0.078,0.468-0.156,1.014-0.156,1.599v10.062
			h-3.404V187.579z"/>
		<path fill="#FFFFFF" stroke="#FFFFFF" stroke-width="2" stroke-miterlimit="10" d="M142.26,190.348h0.079
			c0.469-0.663,1.134-1.482,1.682-2.145l5.556-6.514h4.146l-7.315,7.762l8.333,11.115h-4.186l-6.534-9.048l-1.76,1.95v7.098h-3.404
			v-27.691h3.404V190.348z"/>
		<path fill="#FFFFFF" stroke="#FFFFFF" stroke-width="2" stroke-miterlimit="10" d="M166.867,181.689l2.504,9.595
			c0.548,2.106,1.056,4.056,1.407,6.006h0.118c0.431-1.911,1.057-3.939,1.683-5.967l3.091-9.634h2.895l2.935,9.438
			c0.704,2.262,1.252,4.251,1.683,6.162h0.116c0.313-1.911,0.822-3.9,1.448-6.123l2.7-9.478h3.403l-6.104,18.877h-3.13l-2.895-9.009
			c-0.665-2.106-1.213-3.978-1.684-6.201h-0.077c-0.47,2.262-1.057,4.212-1.722,6.24l-3.052,8.97h-3.13l-5.711-18.877H166.867z"/>
		<path fill="#FFFFFF" stroke="#FFFFFF" stroke-width="2" stroke-miterlimit="10" d="M198.126,176.386
			c0.039,1.17-0.821,2.106-2.19,2.106c-1.213,0-2.074-0.936-2.074-2.106c0-1.209,0.9-2.146,2.152-2.146
			C197.305,174.24,198.126,175.176,198.126,176.386z M194.292,200.566v-18.877h3.443v18.877H194.292z"/>
		<path fill="#FFFFFF" stroke="#FFFFFF" stroke-width="2" stroke-miterlimit="10" d="M207.594,176.269v5.421h4.93v2.613h-4.93v10.18
			c0,2.34,0.665,3.666,2.582,3.666c0.899,0,1.564-0.117,1.996-0.234l0.155,2.574c-0.665,0.273-1.721,0.468-3.051,0.468
			c-1.604,0-2.896-0.507-3.717-1.443c-0.978-1.014-1.331-2.691-1.331-4.914v-10.296h-2.934v-2.613h2.934v-4.524L207.594,176.269z"/>
		<path fill="#FFFFFF" stroke="#FFFFFF" stroke-width="2" stroke-miterlimit="10" d="M216.396,172.875h3.443v11.778h0.079
			c0.547-0.975,1.408-1.833,2.465-2.418c1.017-0.585,2.229-0.975,3.521-0.975c2.543,0,6.612,1.56,6.612,8.073v11.232h-3.443v-10.842
			c0-3.042-1.135-5.616-4.382-5.616c-2.229,0-3.99,1.56-4.616,3.432c-0.195,0.468-0.235,0.975-0.235,1.638v11.389h-3.443V172.875z"
			/>
		<path fill="#FFFFFF" stroke="#FFFFFF" stroke-width="2" stroke-miterlimit="10" d="M47.391,227.242H37.14v9.478h11.424v2.847
			H33.736v-26.287h14.241v2.847H37.14v8.307h10.25V227.242z"/>
		<path fill="#FFFFFF" stroke="#FFFFFF" stroke-width="2" stroke-miterlimit="10" d="M52.867,225.799
			c0-1.95-0.039-3.549-0.157-5.109h3.013l0.156,3.042h0.118c1.057-1.794,2.817-3.471,5.947-3.471c2.582,0,4.538,1.56,5.36,3.783
			h0.078c0.587-1.053,1.33-1.872,2.113-2.457c1.135-0.858,2.387-1.326,4.186-1.326c2.504,0,6.221,1.638,6.221,8.19v11.115h-3.365
			V228.88c0-3.627-1.33-5.811-4.108-5.811c-1.956,0-3.481,1.443-4.069,3.12c-0.156,0.469-0.274,1.093-0.274,1.717v11.661h-3.364
			v-11.311c0-3.003-1.331-5.187-3.952-5.187c-2.152,0-3.716,1.716-4.265,3.432c-0.195,0.507-0.274,1.092-0.274,1.677v11.389h-3.364
			V225.799z"/>
		<path fill="#FFFFFF" stroke="#FFFFFF" stroke-width="2" stroke-miterlimit="10" d="M85.495,225.799c0-1.95-0.04-3.549-0.157-5.109
			h3.013l0.156,3.042h0.118c1.056-1.794,2.817-3.471,5.947-3.471c2.582,0,4.538,1.56,5.36,3.783h0.079
			c0.586-1.053,1.33-1.872,2.112-2.457c1.134-0.858,2.386-1.326,4.186-1.326c2.504,0,6.221,1.638,6.221,8.19v11.115h-3.365V228.88
			c0-3.627-1.33-5.811-4.108-5.811c-1.956,0-3.482,1.443-4.069,3.12c-0.156,0.469-0.274,1.093-0.274,1.717v11.661h-3.364v-11.311
			c0-3.003-1.331-5.187-3.952-5.187c-2.152,0-3.717,1.716-4.265,3.432c-0.195,0.507-0.274,1.092-0.274,1.677v11.389h-3.364V225.799z
			"/>
		<path fill="#FFFFFF" stroke="#FFFFFF" stroke-width="2" stroke-miterlimit="10" d="M120.04,230.752
			c0.078,4.642,3.051,6.553,6.494,6.553c2.465,0,3.952-0.43,5.243-0.976l0.587,2.457c-1.213,0.546-3.286,1.17-6.299,1.17
			c-5.83,0-9.312-3.821-9.312-9.516s3.364-10.18,8.881-10.18c6.181,0,7.825,5.421,7.825,8.893c0,0.702-0.079,1.248-0.118,1.599
			H120.04z M130.133,228.295c0.04-2.184-0.899-5.577-4.772-5.577c-3.482,0-5.008,3.198-5.282,5.577H130.133z"/>
		<path fill="#FFFFFF" stroke="#FFFFFF" stroke-width="2" stroke-miterlimit="10" d="M141.87,215.269v5.421h4.929v2.613h-4.929
			v10.18c0,2.34,0.665,3.666,2.582,3.666c0.9,0,1.565-0.117,1.996-0.234l0.157,2.574c-0.665,0.273-1.722,0.468-3.052,0.468
			c-1.604,0-2.895-0.507-3.716-1.442c-0.979-1.015-1.331-2.691-1.331-4.914v-10.297h-2.934v-2.613h2.934v-4.524L141.87,215.269z"/>
	</g>
</g>
</svg>
