<?xml version="1.0" encoding="utf-8"?>
<!-- Generator: Adobe Illustrator 16.0.0, SVG Export Plug-In . SVG Version: 6.00 Build 0)  -->
<!DOCTYPE svg PUBLIC "-//W3C//DTD SVG 1.1//EN" "http://www.w3.org/Graphics/SVG/1.1/DTD/svg11.dtd">
<svg version="1.1" id="Calque_1" xmlns="http://www.w3.org/2000/svg" xmlns:xlink="http://www.w3.org/1999/xlink" x="0px" y="0px"
	 width="768px" height="1024px" viewBox="0 0 768 1024" enable-background="new 0 0 768 1024" xml:space="preserve">
<rect display="none" fill="#373543" width="768" height="1024"/>
<g>
	<defs>
		<rect id="SVGID_1_" width="768" height="1024"/>
	</defs>
	<clipPath id="SVGID_2_">
		<use xlink:href="#SVGID_1_"  overflow="visible"/>
	</clipPath>
	<g transform="matrix(1 0 0 1 -6.103516e-05 0)" clip-path="url(#SVGID_2_)">
		
			<image overflow="visible" width="2000" height="1300" xlink:href="../../test/img/background_emmet.jpg"  transform="matrix(0.7981 0 0 0.7981 -732.291 146.439)">
		</image>
	</g>
	<g transform="matrix(1 0 0 1 -6.103516e-05 -6.103516e-05)" clip-path="url(#SVGID_2_)">
		
			<image overflow="visible" width="2000" height="1300" xlink:href="../../test/img/background_emmet.jpg"  transform="matrix(0.7981 0 0 0.7981 -733.3955 -890.0654)">
		</image>
	</g>
	<g clip-path="url(#SVGID_2_)">
		<g>
			<g>
				<path fill="#FAC5A1" d="M670.426,363.803c0.046,0.591-1.994,3.052-4.272,5.606c-2.194,1.243-4.133,2.508-4.133,2.508
					c-3.099-1.035-9.434,0.859-9.434,0.859c-0.284-0.614-1.227-1.173-2.255-1.695c1.703-2.27,4.564-6.143,5.982-8.313
					c2.087-3.198,4.617-3.275,4.87-2.101c0.169,0.751-3.046,5.514-5.384,8.858c2.04-2.086,4.447-4.586,5.836-6.181
					c2.769-3.16,5.53-2.845,5.637-1.526c0.03,0.391-0.852,1.595-2.102,3.098C667.803,362.2,670.326,362.537,670.426,363.803z"/>
				<path fill="#195567" d="M600.008,486.906c0.768,16.872-52.586,32.893-52.586,32.893s-21.036,4.303-29.473-29.058
					c-8.436-33.361,18.858-81.101,18.858-81.101c19.173,33.644,60.333,17.094,60.333,17.094s0.053,1.166,0.153,3.191
					c0.261,5.314,0.806,16.557,1.357,28.129C599.173,468.915,599.702,480.081,600.008,486.906z"/>
				<path fill="#FBCBA5" d="M671.998,369.363c-3.038,2.309-11.572,8.781-12.709,11.235c-1.142,2.455-4.133,12.386-4.133,12.386
					l-10.047-3.475c0,0,1.795-8.912,0.774-10.1c-1.02-1.188-3.902-7.132-3.182-8.183c0.714-1.058,1.396-11.964,3.734-11.465
					c2.348,0.498,0.522,8.137,0.736,9.264c0.123,0.659,1.718,1.319,3.159,2.055c1.028,0.522,1.971,1.081,2.255,1.695
					c0,0,6.335-1.894,9.434-0.859c0,0,1.938-1.265,4.133-2.508c1.726-0.981,3.613-1.94,4.825-2.27
					C670.979,367.139,675.034,367.062,671.998,369.363z"/>
				<path fill="#195567" d="M656.813,391.127c0,0-20.247,56.874-58.162,66.927c-0.552-11.572-1.097-22.815-1.357-28.129
					c3.412,1.579,12.278,4.125,22.316-5.384c12.868-12.194,24.925-37.563,24.925-37.563S651.56,390.185,656.813,391.127z"/>
				<polygon fill="#FAFDFE" points="595.671,435.549 588.692,461.663 586.078,471.471 580.096,462 564.85,437.88 				"/>
				<path fill="#E94A53" d="M584.9,445.524l3.789,16.135l-2.615,9.809l-5.982-9.472l2.301-16.381
					c-1.933-1.496-4.877-5.039-6.188-6.665c0.721-0.744,1.533-1.579,2.354-2.423c2.385-2.424,4.831-4.87,5.254-5.062
					c1.534,1.779,4.126,5.039,5.828,7.209C588.343,441.03,586.296,444.105,584.9,445.524z"/>
				<path fill="#DDF0F5" d="M583.812,431.467c-0.423,0.191-2.869,2.638-5.254,5.062c-0.82,0.844-1.633,1.679-2.354,2.423
					c-1.45,1.488-2.515,2.608-2.515,2.608c-8.367-0.767-39.712-24.533-39.712-26.573c0-2.047,3.644-8.26,3.644-8.26l0.007,0.008
					c0.277,0.729,0.63,1.273,1.074,1.604c6.518,4.893,26.396,23.36,44.878,22.915c0.032,0.016,0.062,0.039,0.094,0.053
					c0.006,0.016,0.022,0.023,0.03,0.039C583.742,431.382,583.773,431.428,583.812,431.467z"/>
				<path fill="#DDF0F5" d="M583.851,431.444c-0.009,0-0.024,0.007-0.039,0.023c-0.046-0.054-0.092-0.108-0.138-0.162
					C583.812,431.39,583.872,431.444,583.851,431.444z"/>
				<path fill="#DDF0F5" d="M597.225,426.673v1.825c0,2.048-1.342,10.392-5.883,12.34c0,0-0.697-0.89-1.702-2.163
					c-1.702-2.17-4.294-5.43-5.828-7.209c0.015-0.016,0.03-0.023,0.039-0.023c0.015,0-0.017-0.031-0.085-0.092
					c-0.016,0-0.031-0.007-0.046-0.015c-0.016-0.016-0.031-0.023-0.046-0.031c-0.023-0.022-0.039-0.046-0.055-0.061
					c4.679-0.107,9.265-1.441,13.521-4.509C597.171,426.712,597.193,426.696,597.225,426.673z"/>
				<path fill="#DDF0F5" d="M583.851,431.444c-0.009,0-0.024,0.007-0.039,0.023c-0.046-0.054-0.092-0.108-0.138-0.162
					C583.812,431.39,583.872,431.444,583.851,431.444z"/>
				<path fill="#FBCBA5" d="M597.141,400.914c6.832,18.988,2.997,23.62,0.084,25.76c-0.031,0.023-0.054,0.039-0.084,0.062
					c-4.257,3.068-8.843,4.402-13.521,4.509c-0.015,0.008-0.022,0.008-0.039,0.008c-18.481,0.445-38.36-18.022-44.878-22.915
					c-0.444-0.331-0.797-0.875-1.074-1.604l-0.007-0.008c-4.886-12.792,13.889-82.886,13.889-82.886
					c3.067-7.478,39.304,4.026,44.289,7.285c4.984,3.259,0.766,22.048,2.875,30.292c2.109,8.245,10.929,17.639,10.929,27.034
					S597.141,400.914,597.141,400.914z"/>
				<path fill="#6A3018" d="M556.812,366.533h-4.217c0,0-1.407-5.625-4.858-5.369c-3.449,0.256-7.413,7.542-2.3,17.511
					c5.112,9.97-6.992,4.642-6.992,4.642s-11.03-57.558,7.376-66.506c18.406-8.947,71.832-4.09,64.93,13.805
					c-6.9,17.894-22.367,9.713-32.336,2.172c-9.971-7.541-13.038-11.248-17.512-10.225
					C560.902,322.564,547.482,331.255,556.812,366.533z"/>
				<path fill="#FFFFFF" d="M562.92,382.218c0,0-3.285,28.223,11.375,29.27c8.946,0.639,10.48-7.286,10.48-7.286
					S566.754,411.361,562.92,382.218z"/>
				<ellipse fill="#6A3018" cx="573.691" cy="363.337" rx="2.428" ry="3.835"/>
				<path fill="#6A3018" d="M565.187,359.503c0,0-0.054-0.31-0.029-0.851c0.003-0.273,0.038-0.599,0.09-0.976
					c0.077-0.367,0.129-0.802,0.284-1.246c0.069-0.225,0.144-0.459,0.229-0.701c0.103-0.234,0.209-0.477,0.318-0.726
					c0.226-0.498,0.538-0.991,0.877-1.492c0.375-0.474,0.751-0.986,1.247-1.402c0.244-0.209,0.46-0.46,0.736-0.636l0.818-0.549
					c0.548-0.363,1.176-0.581,1.76-0.846c0.612-0.189,1.228-0.329,1.816-0.456c0.599-0.053,1.176-0.086,1.717-0.108
					c0.543,0.006,1.049,0.096,1.511,0.15c0.23,0.036,0.449,0.069,0.658,0.101c0.208,0.042,0.399,0.116,0.58,0.167
					c0.362,0.105,0.67,0.221,0.924,0.311c0.504,0.183,0.779,0.313,0.779,0.313s-0.312,0.068-0.836,0.142
					c-0.26,0.035-0.576,0.083-0.93,0.113c-0.355,0.018-0.75,0.102-1.175,0.188c-0.421,0.087-0.879,0.133-1.345,0.241
					c-0.463,0.132-0.942,0.26-1.438,0.374c-0.47,0.176-0.954,0.358-1.448,0.543c-0.23,0.121-0.459,0.246-0.696,0.356
					c-0.236,0.113-0.479,0.217-0.688,0.379c-0.442,0.279-0.889,0.552-1.279,0.896c-0.425,0.302-0.771,0.683-1.147,1.022
					c-0.336,0.373-0.688,0.727-0.976,1.103c-0.3,0.37-0.578,0.73-0.815,1.084c-0.26,0.342-0.453,0.685-0.66,0.979
					c-0.168,0.308-0.356,0.57-0.475,0.799C565.33,359.226,565.187,359.503,565.187,359.503z"/>
			</g>
			<path opacity="0.6" fill="#FFFFFF" d="M513.246,655.231l-9.014-11.916l-6.443-8.523l-2.571-3.403
				c0,0-76.252-23.542-105.412,50.552c0,0,6.499-3.873,17.306-2.676c0,0-22.006,24.967-19.456,52.183
				c25.492,9.88,55.512-4.487,55.512-4.487c-1.789,10.717-7.287,15.921-7.287,15.921
				C515.114,735.023,513.246,655.231,513.246,655.231z"/>
			<g>
				<path fill="#E94A53" d="M695.442,486.388c0,0,38.815-24.322,39.179-22.217c0.363,2.107-31.525,32.259-31.525,32.259
					L695.442,486.388z"/>
				
					<rect x="469.21" y="630.917" transform="matrix(0.6139 0.7894 -0.7894 0.6139 699.8481 -160.5031)" fill="#E94A53" width="89.591" height="8.563"/>
				
					<rect x="479.453" y="636.034" transform="matrix(0.6139 0.7894 -0.7894 0.6139 701.2222 -153.1073)" fill="#E94A53" width="55.364" height="8.563"/>
				<path fill="#E94A53" d="M525.742,534.569c-20.271,16.842-36.704,35.414-48.409,53.737l-46.564,21.803l44.486-70.087
					c2.186-3.443,7.265-6.174,11.336-6.105L525.742,534.569z"/>
				<path fill="#E94A53" d="M615.133,649.851l-8.997,38.091c-0.936,3.973-4.831,8.214-8.704,9.488l-78.876,25.865l32.608-39.786
					l0.177-0.101h0.007C571.916,676.592,593.889,665.28,615.133,649.851z"/>
				<path fill="#EADEDA" d="M708.311,520.559c-5.199,36.428-39.895,88.056-85.816,123.763c-2.439,1.902-4.899,3.741-7.361,5.529
					c-21.244,15.43-43.217,26.741-63.785,33.558h-0.007c-0.069,0.024-0.13,0.048-0.199,0.069l-37.31-47.952l-36.597-47.064
					c0.029-0.055,0.069-0.101,0.098-0.154c11.705-18.323,28.139-36.896,48.409-53.737c2.285-1.901,4.623-3.78,7.009-5.637
					c45.915-35.715,105.013-55.961,141.478-52.188c12.363,1.272,22.134,5.322,27.894,12.446c0.107,0.123,0.199,0.246,0.298,0.368
					C708.395,497.236,710.105,507.996,708.311,520.559z"/>
				<circle fill="#E83D4B" cx="629.309" cy="545.779" r="37.769"/>
				<path fill="#DBF0FC" d="M648.787,570.824c-13.83,10.759-33.765,8.266-44.523-5.564c-10.758-13.832-8.268-33.766,5.566-44.526
					c13.831-10.758,33.767-8.266,44.523,5.567C665.113,540.13,662.621,560.066,648.787,570.824z"/>
				<path fill="#E94A53" d="M708.312,520.559l-34.084-43.818c12.578,1.299,22.467,5.46,28.193,12.823
					C708.391,497.238,710.104,507.991,708.312,520.559z"/>
				<g>
					<path fill="#FED16B" d="M506.922,647.442l-3.124-4.132l-2.233-2.954l-0.892-1.179c0,0-26.433-8.162-36.542,17.523
						c0,0,2.253-1.343,6-0.927c0,0-7.628,8.654-6.746,18.09c8.838,3.423,19.244-1.558,19.244-1.558
						c-0.62,3.716-2.526,5.521-2.526,5.521C507.571,675.104,506.922,647.442,506.922,647.442z"/>
					<path fill="#FFE8BB" d="M505.921,646.117l-2.099-2.785l-2.101-2.786c-16.092,1.643-25.81,23.832-25.81,23.832
						S499.918,661.134,505.921,646.117z"/>
				</g>
				<path fill="#FFFFFF" stroke="#FED16B" stroke-miterlimit="10" d="M702.124,489.192l-188.29,146.329l-36.6-47.061
					c13.03-20.438,31.957-41.207,55.515-59.531c45.913-35.71,105.015-55.962,141.482-52.188
					C686.595,478.018,696.363,482.065,702.124,489.192z"/>
			</g>
			<g>
				<path fill="#195567" d="M544.098,519.979c0,0,31.45,0.957,32.021,4.791c0.571,3.835-11.089,31.843-11.089,31.843l6.034,2.285
					c0,0,20.264-30.289,13.711-38.919c-6.552-8.629-30.631-14.687-32.242-14.196C548.6,506.974,544.098,519.979,544.098,519.979z"/>
				
					<ellipse transform="matrix(0.6051 -0.7962 0.7962 0.6051 -222.2719 678.9203)" fill="#0C0D0D" cx="573.204" cy="563.506" rx="4.601" ry="10.73"/>
			</g>
			<g>
				<path fill="#FBCBA5" d="M510.35,544.661c-1.611,0.116-1.005-7.569-2.692-8.558c-1.694-0.989-1.403,12.783-1.403,12.783
					s-2.009,1.073-7.155-2.96c-3.733-2.914-0.483-13.551,1.597-19.202l10.574,0.958C511.967,534.032,511.615,544.569,510.35,544.661
					z"/>
				<path fill="#195567" d="M536.808,453.707c-17.132,27.095-25.177,74.006-25.177,74.006l-0.361-0.03l-10.574-0.958l-0.446-0.039
					c-1.748-54.251,31.812-107.612,31.812-107.612L536.808,453.707z"/>
				<path fill="#0C424F" d="M519.392,495.26l13.591-34.918c0,0-13.995,40.487-8.026,47.345
					C524.956,507.687,521.529,501.985,519.392,495.26z"/>
			</g>
			<g>
				<path fill="#FED16B" d="M667.855,349.97c2.423-2.657,3.91-6.179,3.91-10.057c0-8.258-6.694-14.954-14.952-14.954
					c-8.259,0-14.955,6.695-14.955,14.954c0,3.878,1.49,7.4,3.911,10.057h-0.022c0,0,5.401,5.6,5.423,12.31
					c0,0,10.803,2.765,11.14,0c1.044-8.577,5.619-12.186,5.57-12.31C667.877,349.964,667.855,349.97,667.855,349.97z"/>
				<path fill="#EADEDA" d="M663.313,363.46h-13.48c0-0.652,0.483-1.181,1.081-1.181h11.318
					C662.83,362.279,663.313,362.808,663.313,363.46z"/>
				<path fill="#EADEDA" d="M663.314,365.827c0,0.652-0.485,1.182-1.085,1.182h-11.313c-0.598,0-1.083-0.529-1.083-1.182l0,0
					c0-0.653,0.485-1.183,1.083-1.183h11.313C662.829,364.644,663.314,365.173,663.314,365.827L663.314,365.827z"/>
				<path fill="#EADEDA" d="M663.314,368.191c0,0.652-0.485,1.181-1.085,1.181h-11.313c-0.598,0-1.083-0.529-1.083-1.181l0,0
					c0-0.653,0.485-1.183,1.083-1.183h11.313C662.829,367.008,663.314,367.538,663.314,368.191L663.314,368.191z"/>
				<path fill="#EADEDA" d="M663.314,370.556c0,0.653-0.485,1.182-1.085,1.182h-11.313c-0.598,0-1.083-0.529-1.083-1.182l0,0
					c0-0.653,0.485-1.183,1.083-1.183h11.313C662.829,369.373,663.314,369.902,663.314,370.556L663.314,370.556z"/>
				<path fill="#5A5650" d="M663.313,363.46c0,0.652-0.483,1.182-1.081,1.182h-11.318c-0.598,0-1.081-0.53-1.081-1.182H663.313z"/>
				<path fill="#5A5650" d="M663.313,365.827c0,0.651-0.483,1.181-1.081,1.181h-11.318c-0.598,0-1.081-0.529-1.081-1.181H663.313z"
					/>
				<path fill="#5A5650" d="M663.313,368.192c0,0.652-0.483,1.181-1.081,1.181h-11.318c-0.598,0-1.081-0.528-1.081-1.181H663.313z"
					/>
				<path fill="#5A5650" d="M663.313,370.558c0,0.652-0.483,1.182-1.081,1.182h-11.318c-0.598,0-1.081-0.53-1.081-1.182H663.313z"/>
				<path fill="#FFFFFF" d="M657.955,320.048c0,0.763-0.618,1.382-1.382,1.382l0,0c-0.764,0-1.382-0.619-1.382-1.382v-7.844
					c0-0.763,0.618-1.382,1.382-1.382l0,0c0.764,0,1.382,0.619,1.382,1.382V320.048z"/>
				<path fill="#FFFFFF" d="M665.562,322.185c-0.303,0.701-1.113,1.025-1.816,0.723l0,0c-0.699-0.302-1.023-1.114-0.723-1.815
					l3.102-7.206c0.302-0.7,1.114-1.024,1.815-0.723l0,0c0.701,0.302,1.025,1.115,0.723,1.815L665.562,322.185z"/>
				<path fill="#FFFFFF" d="M671.705,327.155c-0.555,0.524-1.429,0.5-1.953-0.054l0,0c-0.524-0.554-0.501-1.428,0.054-1.953
					l5.698-5.393c0.553-0.525,1.428-0.501,1.953,0.053l0,0c0.523,0.554,0.499,1.429-0.055,1.954L671.705,327.155z"/>
				<path fill="#FFFFFF" d="M675.381,334.149c-0.716,0.263-1.509-0.105-1.771-0.822l0,0c-0.263-0.716,0.105-1.51,0.82-1.772
					l7.367-2.701c0.716-0.263,1.509,0.104,1.771,0.821l0,0c0.264,0.716-0.105,1.51-0.821,1.774L675.381,334.149z"/>
				<path fill="#FFFFFF" d="M648.247,321.998c0.301,0.701,1.113,1.024,1.815,0.722l0,0c0.7-0.302,1.023-1.114,0.722-1.815
					l-3.101-7.206c-0.302-0.7-1.114-1.024-1.816-0.723l0,0c-0.7,0.302-1.023,1.114-0.723,1.815L648.247,321.998z"/>
				<path fill="#FFFFFF" d="M642.104,326.968c0.553,0.525,1.428,0.5,1.952-0.054l0,0c0.525-0.554,0.501-1.428-0.054-1.953
					l-5.696-5.393c-0.555-0.525-1.43-0.501-1.953,0.053l0,0c-0.526,0.554-0.501,1.429,0.053,1.954L642.104,326.968z"/>
				<path fill="#FFFFFF" d="M638.428,333.962c0.715,0.263,1.509-0.105,1.771-0.822l0,0c0.263-0.716-0.105-1.51-0.821-1.772
					l-7.366-2.701c-0.716-0.263-1.51,0.105-1.771,0.821l0,0c-0.264,0.717,0.105,1.511,0.821,1.774L638.428,333.962z"/>
				<path fill="#FFDC96" d="M660.94,328.769c-2.951,0-5.535,1.63-7.001,4.076c1.276-0.845,2.781-1.341,4.4-1.341
					c4.571,0,8.276,3.896,8.276,8.703c0,1.703-0.472,3.287-1.275,4.627c2.326-1.541,3.877-4.257,3.877-7.361
					C669.218,332.665,665.512,328.769,660.94,328.769z"/>
				<g>
					<path fill="#FFEDCB" d="M665.174,324.959c0,0-0.758,4.985-4.16,5.656c0,0,3.876,2.144,4.145,5.656
						c0.01,0.126,0.016,0.254,0.016,0.383c0,0,0.394-4.697,3.844-5.847C669.018,330.806,665.424,328.985,665.174,324.959z"/>
					<path fill="#FFFFFF" d="M664.91,332.786c0,0,0.348-2.064,1.766-2.32c0,0-1.596-0.916-1.685-2.376
						c-0.003-0.052-0.004-0.105-0.003-0.159c0,0-0.194,1.948-1.635,2.402C663.354,330.333,664.834,331.113,664.91,332.786z"/>
				</g>
			</g>
		</g>
		
			<image overflow="visible" width="200" height="200" xlink:href="../../test/img/icon2.png"  transform="matrix(0.5615 0 0 0.5615 574.2705 491.8735)">
		</image>
		
			<image overflow="visible" width="200" height="200" xlink:href="../../test/img/icon1.png"  transform="matrix(0.5615 0 0 0.5615 606.5498 274.2271)">
		</image>
	</g>
	<g clip-path="url(#SVGID_2_)">
		<path fill="#FFFFFF" stroke="#FFFFFF" stroke-width="5" stroke-miterlimit="10" d="M122.644,151.654l-6.687,20.251h-8.597
			l21.875-64.384h10.03l21.971,64.384h-8.884l-6.877-20.251H122.644z M143.755,145.158l-6.304-18.532
			c-1.433-4.203-2.388-8.024-3.343-11.75h-0.191c-0.956,3.821-2.006,7.738-3.248,11.654l-6.305,18.627H143.755z"/>
		<path fill="#FFFFFF" stroke="#FFFFFF" stroke-width="5" stroke-miterlimit="10" d="M239.757,169.04
			c-3.726,1.337-11.081,3.534-19.774,3.534c-9.743,0-17.768-2.483-24.072-8.502c-5.541-5.349-8.979-13.946-8.979-23.977
			c0.095-19.2,13.278-33.243,34.867-33.243c7.451,0,13.278,1.624,16.048,2.961l-2.006,6.782c-3.439-1.528-7.737-2.77-14.233-2.77
			c-15.666,0-25.887,9.744-25.887,25.887c0,16.335,9.839,25.983,24.836,25.983c5.445,0,9.171-0.764,11.082-1.719v-19.201H218.55
			v-6.687h21.207V169.04z"/>
		<path fill="#FFFFFF" stroke="#FFFFFF" stroke-width="5" stroke-miterlimit="10" d="M294.491,148.406
			c0,17.099-11.845,24.55-23.021,24.55c-12.514,0-22.162-9.17-22.162-23.786c0-15.475,10.125-24.55,22.926-24.55
			C285.511,124.621,294.491,134.269,294.491,148.406z M257.809,148.884c0,10.126,5.827,17.768,14.042,17.768
			c8.024,0,14.042-7.547,14.042-17.959c0-7.833-3.916-17.768-13.851-17.768C262.107,130.925,257.809,140.095,257.809,148.884z"/>
		<path fill="#FFFFFF" stroke="#FFFFFF" stroke-width="5" stroke-miterlimit="10" d="M346.934,148.406
			c0,17.099-11.845,24.55-23.022,24.55c-12.514,0-22.162-9.17-22.162-23.786c0-15.475,10.126-24.55,22.926-24.55
			C337.954,124.621,346.934,134.269,346.934,148.406z M310.252,148.884c0,10.126,5.827,17.768,14.042,17.768
			c8.024,0,14.042-7.547,14.042-17.959c0-7.833-3.917-17.768-13.851-17.768S310.252,140.095,310.252,148.884z"/>
		<path fill="#FFFFFF" stroke="#FFFFFF" stroke-width="5" stroke-miterlimit="10" d="M397.465,104.083v55.882
			c0,4.107,0.097,8.789,0.383,11.94h-7.547l-0.383-8.024h-0.189c-2.58,5.159-8.216,9.075-15.762,9.075
			c-11.176,0-19.773-9.457-19.773-23.499c-0.096-15.379,9.457-24.836,20.729-24.836c7.069,0,11.846,3.343,13.947,7.069h0.189
			v-27.607H397.465z M389.059,144.49c0-1.051-0.095-2.483-0.381-3.534c-1.242-5.35-5.828-9.744-12.132-9.744
			c-8.693,0-13.852,7.642-13.852,17.863c0,9.361,4.585,17.099,13.66,17.099c5.636,0,10.794-3.726,12.323-10.03
			c0.286-1.146,0.381-2.293,0.381-3.63V144.49z"/>
		<path fill="#FFFFFF" stroke="#FFFFFF" stroke-width="5" stroke-miterlimit="10" d="M115.289,224.669l6.114,23.499
			c1.337,5.158,2.579,9.935,3.439,14.711h0.286c1.051-4.681,2.58-9.648,4.108-14.615l7.546-23.595h7.069l7.165,23.117
			c1.72,5.54,3.057,10.412,4.107,15.093h0.287c0.764-4.681,2.005-9.553,3.534-14.998l6.591-23.212h8.311l-14.902,46.234h-7.643
			l-7.068-22.066c-1.624-5.158-2.961-9.744-4.108-15.188h-0.191c-1.146,5.541-2.579,10.317-4.203,15.284l-7.451,21.971h-7.642
			l-13.947-46.234H115.289z"/>
		<path fill="#FFFFFF" stroke="#FFFFFF" stroke-width="5" stroke-miterlimit="10" d="M207.469,270.904l-0.669-5.827h-0.287
			c-2.579,3.63-7.546,6.878-14.138,6.878c-9.361,0-14.137-6.591-14.137-13.278c0-11.176,9.934-17.29,27.798-17.194v-0.955
			c0-3.821-1.051-10.699-10.508-10.699c-4.299,0-8.789,1.337-12.037,3.439l-1.91-5.54c3.821-2.484,9.361-4.108,15.188-4.108
			c14.138,0,17.577,9.648,17.577,18.914v17.29c0,4.012,0.191,7.929,0.764,11.081H207.469z M206.227,247.309
			c-9.17-0.191-19.582,1.433-19.582,10.412c0,5.445,3.629,8.024,7.928,8.024c6.018,0,9.839-3.821,11.177-7.738
			c0.287-0.859,0.477-1.815,0.477-2.675V247.309z"/>
		<path fill="#FFFFFF" stroke="#FFFFFF" stroke-width="5" stroke-miterlimit="10" d="M230.204,224.669l10.125,27.32
			c1.051,3.057,2.197,6.687,2.961,9.457h0.191c0.86-2.771,1.815-6.305,2.961-9.648l9.17-27.129h8.884l-12.609,32.956
			c-6.018,15.857-10.125,23.977-15.857,28.944c-4.107,3.63-8.215,5.062-10.317,5.445l-2.102-7.069
			c2.102-0.669,4.872-2.006,7.355-4.107c2.292-1.815,5.158-5.063,7.069-9.361c0.382-0.86,0.669-1.529,0.669-2.006
			s-0.191-1.146-0.573-2.197l-17.099-42.604H230.204z"/>
		<path fill="#FFFFFF" stroke="#FFFFFF" stroke-width="5" stroke-miterlimit="10" d="M302.323,211.392v13.278h12.037v6.4h-12.037
			v24.932c0,5.732,1.624,8.98,6.305,8.98c2.197,0,3.821-0.287,4.872-0.574l0.382,6.305c-1.624,0.668-4.203,1.146-7.451,1.146
			c-3.916,0-7.068-1.242-9.074-3.535c-2.388-2.483-3.248-6.591-3.248-12.036V231.07h-7.165v-6.4h7.165v-11.081L302.323,211.392z"/>
		<path fill="#FFFFFF" stroke="#FFFFFF" stroke-width="5" stroke-miterlimit="10" d="M365.083,247.404
			c0,17.099-11.845,24.55-23.021,24.55c-12.514,0-22.162-9.171-22.162-23.786c0-15.475,10.125-24.55,22.926-24.55
			C356.104,223.619,365.083,233.267,365.083,247.404z M328.401,247.882c0,10.126,5.827,17.768,14.042,17.768
			c8.024,0,14.042-7.547,14.042-17.958c0-7.833-3.916-17.768-13.851-17.768C332.7,229.923,328.401,239.094,328.401,247.882z"/>
		<path fill="#FFFFFF" stroke="#FFFFFF" stroke-width="5" stroke-miterlimit="10" d="M115.289,323.667l6.114,23.5
			c1.337,5.158,2.579,9.934,3.439,14.71h0.286c1.051-4.68,2.58-9.648,4.108-14.615l7.546-23.595h7.069l7.165,23.117
			c1.72,5.541,3.057,10.413,4.107,15.093h0.287c0.764-4.68,2.005-9.552,3.534-14.997l6.591-23.213h8.311l-14.902,46.234h-7.643
			l-7.068-22.066c-1.624-5.158-2.961-9.744-4.108-15.188h-0.191c-1.146,5.541-2.579,10.317-4.203,15.284l-7.451,21.971h-7.642
			l-13.947-46.234H115.289z"/>
		<path fill="#FFFFFF" stroke="#FFFFFF" stroke-width="5" stroke-miterlimit="10" d="M223.136,346.403
			c0,17.099-11.845,24.55-23.021,24.55c-12.514,0-22.162-9.17-22.162-23.786c0-15.475,10.126-24.55,22.926-24.55
			C214.156,322.617,223.136,332.265,223.136,346.403z M186.454,346.88c0,10.125,5.827,17.768,14.042,17.768
			c8.024,0,14.042-7.547,14.042-17.958c0-7.833-3.916-17.768-13.851-17.768C190.752,328.921,186.454,338.092,186.454,346.88z"/>
		<path fill="#FFFFFF" stroke="#FFFFFF" stroke-width="5" stroke-miterlimit="10" d="M233.738,338.092
			c0-5.445-0.096-10.125-0.382-14.424h7.355l0.287,9.075h0.382c2.102-6.209,7.164-10.126,12.8-10.126
			c0.956,0,1.624,0.096,2.388,0.287v7.928c-0.86-0.191-1.719-0.287-2.866-0.287c-5.922,0-10.125,4.49-11.271,10.794
			c-0.191,1.146-0.382,2.483-0.382,3.917v24.646h-8.311V338.092z"/>
		<path fill="#FFFFFF" stroke="#FFFFFF" stroke-width="5" stroke-miterlimit="10" d="M273.667,344.874h0.191
			c1.146-1.624,2.771-3.629,4.107-5.253l13.565-15.953h10.125l-17.863,19.01l20.347,27.225h-10.221l-15.953-22.162l-4.298,4.776
			v17.386h-8.311v-67.823h8.311V344.874z"/>
		<path fill="#FFFFFF" stroke="#FFFFFF" stroke-width="5" stroke-miterlimit="10" d="M333.56,323.667l6.114,23.5
			c1.337,5.158,2.579,9.934,3.439,14.71h0.287c1.051-4.68,2.579-9.648,4.107-14.615l7.547-23.595h7.068l7.165,23.117
			c1.72,5.541,3.057,10.413,4.108,15.093h0.286c0.765-4.68,2.006-9.552,3.535-14.997l6.591-23.213h8.312l-14.902,46.234h-7.642
			l-7.069-22.066c-1.624-5.158-2.961-9.744-4.107-15.188h-0.191c-1.146,5.541-2.579,10.317-4.203,15.284l-7.451,21.971h-7.642
			l-13.947-46.234H333.56z"/>
		<path fill="#FFFFFF" stroke="#FFFFFF" stroke-width="5" stroke-miterlimit="10" d="M409.883,310.676
			c0.096,2.866-2.006,5.158-5.349,5.158c-2.962,0-5.063-2.292-5.063-5.158c0-2.961,2.197-5.254,5.254-5.254
			C407.877,305.422,409.883,307.715,409.883,310.676z M400.521,369.902v-46.234h8.406v46.234H400.521z"/>
		<path fill="#FFFFFF" stroke="#FFFFFF" stroke-width="5" stroke-miterlimit="10" d="M433,310.39v13.278h12.035v6.4H433V355
			c0,5.731,1.624,8.979,6.304,8.979c2.197,0,3.821-0.287,4.872-0.573l0.382,6.304c-1.624,0.669-4.203,1.146-7.451,1.146
			c-3.916,0-7.068-1.242-9.075-3.535c-2.388-2.483-3.246-6.591-3.246-12.036v-25.219h-7.165v-6.4h7.165v-11.081L433,310.39z"/>
		<path fill="#FFFFFF" stroke="#FFFFFF" stroke-width="5" stroke-miterlimit="10" d="M454.492,302.079h8.405v28.849h0.191
			c1.337-2.388,3.438-4.489,6.019-5.922c2.482-1.433,5.444-2.388,8.597-2.388c6.209,0,16.145,3.821,16.145,19.774v27.511h-8.407
			v-26.556c0-7.451-2.77-13.755-10.698-13.755c-5.445,0-9.744,3.821-11.272,8.406c-0.478,1.146-0.573,2.388-0.573,4.012v27.894
			h-8.405V302.079z"/>
		<path fill="#FFFFFF" stroke="#FFFFFF" stroke-width="5" stroke-miterlimit="10" d="M145.57,438.714h-25.028v23.212h27.894v6.974
			h-36.204v-64.384h34.771v6.973h-26.46v20.347h25.028V438.714z"/>
		<path fill="#FFFFFF" stroke="#FFFFFF" stroke-width="5" stroke-miterlimit="10" d="M158.942,435.18
			c0-4.776-0.096-8.693-0.382-12.514h7.355l0.382,7.451h0.287c2.58-4.394,6.878-8.501,14.52-8.501
			c6.305,0,11.081,3.821,13.087,9.266h0.191c1.433-2.579,3.248-4.585,5.159-6.018c2.77-2.102,5.827-3.248,10.221-3.248
			c6.113,0,15.188,4.012,15.188,20.06V468.9h-8.215v-26.174c0-8.884-3.248-14.233-10.03-14.233c-4.776,0-8.501,3.534-9.935,7.643
			c-0.382,1.146-0.668,2.674-0.668,4.203V468.9h-8.215v-27.702c0-7.355-3.248-12.705-9.648-12.705
			c-5.254,0-9.075,4.203-10.412,8.406c-0.478,1.242-0.668,2.675-0.668,4.108V468.9h-8.215V435.18z"/>
		<path fill="#FFFFFF" stroke="#FFFFFF" stroke-width="5" stroke-miterlimit="10" d="M238.61,435.18
			c0-4.776-0.096-8.693-0.383-12.514h7.356l0.382,7.451h0.287c2.58-4.394,6.877-8.501,14.52-8.501
			c6.304,0,11.081,3.821,13.086,9.266h0.191c1.433-2.579,3.248-4.585,5.158-6.018c2.77-2.102,5.827-3.248,10.221-3.248
			c6.114,0,15.188,4.012,15.188,20.06V468.9h-8.215v-26.174c0-8.884-3.248-14.233-10.03-14.233c-4.776,0-8.502,3.534-9.935,7.643
			c-0.382,1.146-0.669,2.674-0.669,4.203V468.9h-8.215v-27.702c0-7.355-3.248-12.705-9.648-12.705
			c-5.253,0-9.074,4.203-10.412,8.406c-0.478,1.242-0.669,2.675-0.669,4.108V468.9h-8.215V435.18z"/>
		<path fill="#FFFFFF" stroke="#FFFFFF" stroke-width="5" stroke-miterlimit="10" d="M322.958,447.311
			c0.191,11.367,7.451,16.049,15.857,16.049c6.019,0,9.648-1.051,12.801-2.388l1.433,6.018c-2.961,1.337-8.024,2.866-15.379,2.866
			c-14.233,0-22.735-9.361-22.735-23.308c0-13.947,8.215-24.932,21.684-24.932c15.093,0,19.105,13.278,19.105,21.78
			c0,1.719-0.191,3.057-0.287,3.916H322.958z M347.603,441.293c0.095-5.35-2.197-13.661-11.654-13.661
			c-8.502,0-12.228,7.833-12.896,13.661H347.603z"/>
		<path fill="#FFFFFF" stroke="#FFFFFF" stroke-width="5" stroke-miterlimit="10" d="M376.259,409.388v13.278h12.036v6.4h-12.036
			v24.932c0,5.732,1.624,8.979,6.305,8.979c2.197,0,3.821-0.287,4.872-0.573l0.382,6.305c-1.624,0.668-4.203,1.146-7.451,1.146
			c-3.917,0-7.069-1.242-9.075-3.534c-2.388-2.484-3.248-6.591-3.248-12.036v-25.219h-7.164v-6.4h7.164v-11.081L376.259,409.388z"/>
	</g>
</g>
<path display="none" fill="none" stroke="#E94A53" stroke-width="2" stroke-miterlimit="10" d="M282.788,646.941
	c0,4.45-2.668,8.059-5.959,8.059H133.773c-3.292,0-5.96-3.608-5.96-8.059V580.98c0-4.45,2.668-8.059,5.96-8.059h143.056
	c3.291,0,5.959,3.608,5.959,8.059V646.941z"/>
<g display="none">
	<path display="inline" fill="#E94A53" d="M191.331,633.775c-2.535,0.91-7.537,2.404-13.449,2.404
		c-6.626,0-12.083-1.689-16.372-5.782c-3.768-3.638-6.106-9.485-6.106-16.307c0.065-13.058,9.03-22.608,23.712-22.608
		c5.068,0,9.031,1.104,10.915,2.015l-1.365,4.612c-2.338-1.04-5.262-1.885-9.68-1.885c-10.654,0-17.606,6.627-17.606,17.606
		c0,11.109,6.691,17.671,16.891,17.671c3.703,0,6.237-0.52,7.536-1.17v-13.059h-8.9v-4.547h14.423V633.775z"/>
	<path display="inline" fill="#E94A53" d="M228.556,619.742c0,11.63-8.056,16.697-15.657,16.697c-8.51,0-15.072-6.236-15.072-16.177
		c0-10.524,6.887-16.697,15.593-16.697C222.45,603.565,228.556,610.129,228.556,619.742z M203.608,620.068
		c0,6.886,3.963,12.083,9.55,12.083c5.458,0,9.551-5.133,9.551-12.213c0-5.327-2.664-12.085-9.42-12.085
		C206.532,607.854,203.608,614.091,203.608,620.068z"/>
	<path display="inline" fill="#E94A53" d="M248.436,632.411c0-2.339,1.624-4.027,3.833-4.027c2.339,0,3.833,1.688,3.833,4.027
		c0,2.274-1.494,4.028-3.833,4.028C249.995,636.439,248.436,634.686,248.436,632.411z M250.06,623.121l-0.909-31.185h6.236
		l-0.909,31.185H250.06z"/>
</g>
</svg>
